name rise30.6535peak61.5555fall82.9339.mot
datacolumns 19
datarows 17
range 1.44165900000000 1.46832200000000
endheader
time	ground_force1_vx	ground_force1_vy	ground_force1_vz	ground_force1_px	ground_force1_py	ground_force1_pz	ground_force2_vx	ground_force2_vy	ground_force2_vz	ground_force2_px	ground_force2_py	ground_force2_pz	ground_torque1_x	ground_torque1_y	ground_torque1_z	ground_torque2_x	ground_torque2_y	ground_torque2_z	
1.44165900000000	-50.20602400000000	817.19257900000002	52.33324300000000	0.10615400000000	0.00000000000000	0.09275400000000	-5.19898800000000	31.64288600000000	8.24726800000000	0.32798500000000	0.00000000000000	-0.07898400000000	0.00000000000000	18.65060700000000	0.00000000000000	0.00000000000000	5.07516000000000	0.00000000000000	
1.44332400000000	-50.43622000000000	814.53881300000000	52.22122200000000	0.10554400000000	0.00000000000000	0.09275500000000	-5.90790300000000	37.68522900000000	9.55915900000000	0.33338000000000	0.00000000000000	-0.07936900000000	0.00000000000000	18.54784500000000	0.00000000000000	0.00000000000000	5.95303400000000	0.00000000000000	
1.44499100000000	-50.67484500000000	811.77246500000001	52.08796100000000	0.10494600000000	0.00000000000000	0.09275200000000	-6.54335400000000	43.81612900000000	10.81155200000000	0.33827900000000	0.00000000000000	-0.07974400000000	0.00000000000000	18.44540800000000	0.00000000000000	0.00000000000000	6.80862700000000	0.00000000000000	
1.44665500000000	-50.92249900000000	808.89357600000005	51.93311300000000	0.10435900000000	0.00000000000000	0.09274400000000	-7.08359500000000	49.92974200000000	11.97232300000000	0.34274400000000	0.00000000000000	-0.08011100000000	0.00000000000000	18.34341600000000	0.00000000000000	0.00000000000000	7.62016100000000	0.00000000000000	
1.44832400000000	-51.17973400000000	805.90215599999999	51.75636400000000	0.10378400000000	0.00000000000000	0.09273200000000	-7.51233400000000	55.93929400000000	13.01639200000000	0.34682700000000	0.00000000000000	-0.08047200000000	0.00000000000000	18.24198000000000	0.00000000000000	0.00000000000000	8.36995800000000	0.00000000000000	
1.44999300000000	-51.44705000000000	802.79817800000001	51.55743600000000	0.10321900000000	0.00000000000000	0.09271500000000	-7.81928600000000	61.78130700000000	13.92670900000000	0.35057200000000	0.00000000000000	-0.08082900000000	0.00000000000000	18.14120300000000	0.00000000000000	0.00000000000000	9.04524700000000	0.00000000000000	
1.45165600000000	-51.72489200000000	799.58157200000005	51.33609000000000	0.10266400000000	0.00000000000000	0.09269400000000	-8.00014800000000	67.41724900000000	14.69441600000000	0.35401600000000	0.00000000000000	-0.08118300000000	0.00000000000000	18.04117600000000	0.00000000000000	0.00000000000000	9.63843700000000	0.00000000000000	
1.45332100000000	-52.01364500000000	796.25222799999995	51.09212000000000	0.10211800000000	0.00000000000000	0.09266900000000	-8.05608900000000	72.83286900000000	15.31832100000000	0.35718700000000	0.00000000000000	-0.08153400000000	0.00000000000000	17.94198000000000	0.00000000000000	0.00000000000000	10.14691800000000	0.00000000000000	
1.45498900000000	-52.31363000000000	792.80998699999998	50.82536100000000	0.10158100000000	0.00000000000000	0.09263800000000	-7.99288200000000	78.03565399999999	15.80383200000000	0.36011300000000	0.00000000000000	-0.08188500000000	0.00000000000000	17.84368500000000	0.00000000000000	0.00000000000000	10.57249100000000	0.00000000000000	
1.45665700000000	-52.62510100000000	789.25464299999999	50.53568600000000	0.10105300000000	0.00000000000000	0.09260300000000	-7.81980800000000	83.05093200000000	16.16153000000000	0.36281500000000	0.00000000000000	-0.08223500000000	0.00000000000000	17.74635000000000	0.00000000000000	0.00000000000000	10.92052000000000	0.00000000000000	
1.45832400000000	-52.94824500000000	785.58593900000005	50.22300700000000	0.10053200000000	0.00000000000000	0.09256400000000	-7.54846400000000	87.91719500000001	16.40556500000000	0.36531200000000	0.00000000000000	-0.08258600000000	0.00000000000000	17.65002200000000	0.00000000000000	0.00000000000000	11.19894200000000	0.00000000000000	
1.45999100000000	-53.28317100000000	781.80357100000003	49.88727500000000	0.10001900000000	0.00000000000000	0.09251900000000	-7.19158400000000	92.68115800000000	16.55204200000000	0.36762100000000	0.00000000000000	-0.08293700000000	0.00000000000000	17.55473800000000	0.00000000000000	0.00000000000000	11.41723700000000	0.00000000000000	
1.46165600000000	-53.62991500000000	777.90718200000003	49.52848200000000	0.09951100000000	0.00000000000000	0.09247000000000	-6.76197600000000	97.39299800000001	16.61752500000000	0.36975700000000	0.00000000000000	-0.08328900000000	0.00000000000000	17.46052200000000	0.00000000000000	0.00000000000000	11.58544300000000	0.00000000000000	
1.46332800000000	-53.98843400000000	773.89636800000005	49.14666100000000	0.09900900000000	0.00000000000000	0.09241600000000	-6.27163400000000	102.10213100000000	16.61775700000000	0.37173100000000	0.00000000000000	-0.08364200000000	0.00000000000000	17.36738400000000	0.00000000000000	0.00000000000000	11.71330500000000	0.00000000000000	
1.46498600000000	-54.35860000000000	769.77067699999998	48.74188500000000	0.09851100000000	0.00000000000000	0.09235800000000	-5.73106600000000	106.85376300000000	16.56666900000000	0.37355500000000	0.00000000000000	-0.08399600000000	0.00000000000000	17.27532700000000	0.00000000000000	0.00000000000000	11.80958500000000	0.00000000000000	
1.46665500000000	-54.74020400000000	765.52961000000005	48.31426800000000	0.09801700000000	0.00000000000000	0.09229500000000	-5.14885200000000	111.68633800000001	16.47569600000000	0.37523800000000	0.00000000000000	-0.08435200000000	0.00000000000000	17.18433800000000	0.00000000000000	0.00000000000000	11.88157600000000	0.00000000000000	
1.46832200000000	-55.13295100000000	761.17262500000004	47.86396500000000	0.09752700000000	0.00000000000000	0.09222700000000	-4.53142800000000	116.62993200000000	16.35339800000000	0.37679000000000	0.00000000000000	-0.08470900000000	0.00000000000000	17.09439300000000	0.00000000000000	0.00000000000000	11.93481400000000	0.00000000000000	
